<?xml version="1.0" encoding="UTF-8" standalone="no"?><!DOCTYPE svg PUBLIC "-//W3C//DTD SVG 1.1//EN" "http://www.w3.org/Graphics/SVG/1.1/DTD/svg11.dtd"><svg width="100%" height="100%" viewBox="0 0 52 52" version="1.1" xmlns="http://www.w3.org/2000/svg" xmlns:xlink="http://www.w3.org/1999/xlink" xml:space="preserve" xmlns:serif="http://www.serif.com/" style="fill-rule:evenodd;clip-rule:evenodd;stroke-linejoin:round;stroke-miterlimit:1.41421;"><g><path d="M26,0c-14.337,0 -26,11.663 -26,26c0,14.337 11.663,26 26,26c14.337,0 26,-11.663 26,-26c0,-14.337 -11.663,-26 -26,-26Zm0,50c-13.233,0 -24,-10.767 -24,-24c0,-13.233 10.767,-24 24,-24c13.233,0 24,10.767 24,24c0,13.233 -10.767,24 -24,24Z" style="fill:#fff;fill-rule:nonzero;"/><path d="M32,36.783l0,-21.345l-17.957,10.368l17.957,10.977Zm-2,-3.566l-12.043,-7.362l12.043,-6.953l0,14.315Z" style="fill:#fff;fill-rule:nonzero;"/></g></svg>